<svg aria-hidden="true" style="width:0;height:0;position:absolute;overflow:hidden" xmlns="http://www.w3.org/2000/svg"><defs><symbol id="icon-google2" viewBox="0 0 32 32"><path d="M29 0H3C1.35 0 0 1.35 0 3v26c0 1.65 1.35 3 3 3h26c1.65 0 3-1.35 3-3V3c0-1.65-1.35-3-3-3zM16.238 28c-6.631 0-12-5.369-12-12s5.369-12 12-12c3.238 0 5.95 1.181 8.037 3.138l-3.256 3.138c-.894-.856-2.45-1.85-4.781-1.85-4.1 0-7.438 3.394-7.438 7.575s3.344 7.575 7.438 7.575c4.75 0 6.531-3.413 6.806-5.175h-6.806v-4.113h11.331c.1.6.188 1.2.188 1.988.006 6.856-4.588 11.725-11.519 11.725z"/></symbol><symbol id="icon-checkbox-checked" viewBox="0 0 32 32"><path d="M28 0H4C1.8 0 0 1.8 0 4v24c0 2.2 1.8 4 4 4h24c2.2 0 4-1.8 4-4V4c0-2.2-1.8-4-4-4zM14 24.828l-7.414-7.414 2.828-2.828L14 19.172l9.586-9.586 2.828 2.828L14 24.828z"/></symbol><symbol id="icon-key" viewBox="0 0 32 32"><path d="M22 0c-5.523 0-10 4.477-10 10 0 .626.058 1.238.168 1.832L0 24v6a2 2 0 0 0 2 2h2v-2h4v-4h4v-4h4l2.595-2.595A9.977 9.977 0 0 0 22 20c5.523 0 10-4.477 10-10S27.523 0 22 0zm2.996 10.004a3 3 0 1 1 0-6 3 3 0 0 1 0 6z"/></symbol><symbol id="icon-heart" viewBox="0 0 32 32"><path stroke-width="3.048" d="m14.698 27.26-.002-.002c-4.151-3.712-7.472-6.685-9.773-9.46-2.284-2.754-3.399-5.122-3.399-7.596 0-3.998 3.17-7.154 7.276-7.154 2.33 0 4.585 1.077 6.047 2.77L16 7.154l1.153-1.336c1.462-1.692 3.716-2.77 6.047-2.77 4.107 0 7.276 3.156 7.276 7.154 0 2.474-1.115 4.842-3.399 7.599-2.301 2.776-5.622 5.753-9.772 9.472l-.002.002-1.299 1.157-1.306-1.172z"/></symbol><symbol id="icon-mdi-light_chevron-down" viewBox="0 0 32 32"><path d="m7.791 12.79 7.543 7.543 7.543-7.543-.943-.943-6.6 6.6-6.6-6.6-.943.943z"/><path d="m7.791 12.792 7.543 7.543 7.543-7.543-.943-.943-6.6 6.6-6.6-6.6-.943.943z"/></symbol><symbol id="icon-menu" viewBox="0 0 32 32"><path d="M1.067 7.467h29.867a1.067 1.067 0 0 1 0 2.134H1.067a1.067 1.067 0 0 1 0-2.134zm0 7.466h29.867a1.067 1.067 0 0 1 0 2.134H1.067a1.067 1.067 0 0 1 0-2.134zm0 7.467h29.867a1.067 1.067 0 0 1 0 2.134H1.067a1.067 1.067 0 0 1 0-2.134z"/></symbol><symbol id="icon-modal-cross" viewBox="0 0 32 32"><path d="m17.254 16 7.369-7.369a.886.886 0 0 0-.047-1.207.893.893 0 0 0-1.207-.047L16 14.746 8.631 7.368A.892.892 0 0 0 7.369 8.63l7.378 7.369-7.378 7.369a.891.891 0 0 0-.05 1.304.89.89 0 0 0 1.304-.05l7.378-7.369 7.369 7.369a.886.886 0 0 0 1.207-.047.89.89 0 0 0 .047-1.207l-7.369-7.369z"/></symbol><symbol id="icon-search" viewBox="0 0 32 32"><path d="M13.44 23.68c2.272 0 4.478-.761 6.268-2.161l5.627 5.627 1.81-1.81-5.627-5.627a10.184 10.184 0 0 0 2.162-6.269c0-5.646-4.594-10.24-10.24-10.24S3.2 7.794 3.2 13.44s4.594 10.24 10.24 10.24zm0-17.92c4.236 0 7.68 3.444 7.68 7.68s-3.444 7.68-7.68 7.68-7.68-3.444-7.68-7.68 3.444-7.68 7.68-7.68z"/></symbol><symbol id="vector-i" viewBox="0 0 22 32"><path fill="none" stroke="#FCFCFC" style="stroke:#fd5103,#fcfcfc" stroke-linejoin="round" stroke-linecap="round" stroke-width="2.4" d="m6.166 3.795 12.832 12.218L6.166 28.234"/></symbol></defs></svg>