<svg width="24" height="24" viewBox="0 0 24 24" fill="none" xmlns="http://www.w3.org/2000/svg">
<path d="M12.5429 15.9304L20.5079 7.57094C20.6409 7.43145 20.7151 7.24614 20.7151 7.05344C20.7151 6.86073 20.6409 6.67542 20.5079 6.53594L20.4989 6.52694C20.4345 6.45908 20.3569 6.40505 20.2709 6.36813C20.1849 6.33121 20.0923 6.31217 19.9987 6.31217C19.9051 6.31217 19.8125 6.33121 19.7265 6.36813C19.6405 6.40505 19.5629 6.45908 19.4984 6.52694L11.9984 14.3989L4.50145 6.52693C4.43699 6.45908 4.3594 6.40505 4.2734 6.36813C4.1874 6.33121 4.09479 6.31217 4.0012 6.31217C3.90761 6.31217 3.815 6.33121 3.729 6.36813C3.643 6.40505 3.56541 6.45908 3.50095 6.52693L3.49195 6.53593C3.35898 6.67542 3.2848 6.86073 3.2848 7.05343C3.2848 7.24614 3.35898 7.43145 3.49195 7.57093L11.4569 15.9304C11.527 16.004 11.6112 16.0625 11.7046 16.1025C11.7979 16.1425 11.8984 16.1631 11.9999 16.1631C12.1015 16.1631 12.202 16.1425 12.2953 16.1025C12.3887 16.0625 12.4729 16.004 12.5429 15.9304Z" fill="black"/>
</svg>
